<?xml version="1.0" encoding="utf-8" standalone="no"?>
<!DOCTYPE svg PUBLIC "-//W3C//DTD SVG 1.1//EN"
  "http://www.w3.org/Graphics/SVG/1.1/DTD/svg11.dtd">
<!-- Created with matplotlib (https://matplotlib.org/) -->
<svg height="393.12pt" version="1.1" viewBox="0 0 737.28 393.12" width="737.28pt" xmlns="http://www.w3.org/2000/svg" xmlns:xlink="http://www.w3.org/1999/xlink">
 <defs>
  <style type="text/css">
*{stroke-linecap:butt;stroke-linejoin:round;}
  </style>
 </defs>
 <g id="figure_1">
  <g id="patch_1">
   <path d="M 0 393.12 
L 737.28 393.12 
L 737.28 0 
L 0 0 
z
" style="fill:#ffffff;"/>
  </g>
  <g id="axes_1">
   <g id="patch_2">
    <path d="M 92.16 349.8768 
L 663.552 349.8768 
L 663.552 47.1744 
L 92.16 47.1744 
z
" style="fill:#ffffff;"/>
   </g>
   <g id="PathCollection_1">
    <defs>
     <path d="M 0 1.581139 
C 0.419323 1.581139 0.821528 1.41454 1.118034 1.118034 
C 1.41454 0.821528 1.581139 0.419323 1.581139 0 
C 1.581139 -0.419323 1.41454 -0.821528 1.118034 -1.118034 
C 0.821528 -1.41454 0.419323 -1.581139 0 -1.581139 
C -0.419323 -1.581139 -0.821528 -1.41454 -1.118034 -1.118034 
C -1.41454 -0.821528 -1.581139 -0.419323 -1.581139 0 
C -1.581139 0.419323 -1.41454 0.821528 -1.118034 1.118034 
C -0.821528 1.41454 -0.419323 1.581139 0 1.581139 
z
" id="m7fc31da981" style="stroke:#1f77b4;"/>
    </defs>
    <g clip-path="url(#pe3b4c173dc)">
     <use style="fill:#1f77b4;stroke:#1f77b4;" x="118.134176" xlink:href="#m7fc31da981" y="60.953894"/>
     <use style="fill:#1f77b4;stroke:#1f77b4;" x="120.495908" xlink:href="#m7fc31da981" y="89.417006"/>
     <use style="fill:#1f77b4;stroke:#1f77b4;" x="122.894213" xlink:href="#m7fc31da981" y="113.136265"/>
     <use style="fill:#1f77b4;stroke:#1f77b4;" x="125.295843" xlink:href="#m7fc31da981" y="103.648561"/>
     <use style="fill:#1f77b4;stroke:#1f77b4;" x="127.658683" xlink:href="#m7fc31da981" y="141.599377"/>
     <use style="fill:#1f77b4;stroke:#1f77b4;" x="130.059205" xlink:href="#m7fc31da981" y="108.392413"/>
     <use style="fill:#1f77b4;stroke:#1f77b4;" x="132.465268" xlink:href="#m7fc31da981" y="117.880117"/>
     <use style="fill:#1f77b4;stroke:#1f77b4;" x="134.827" xlink:href="#m7fc31da981" y="108.392413"/>
     <use style="fill:#1f77b4;stroke:#1f77b4;" x="137.225306" xlink:href="#m7fc31da981" y="89.417006"/>
     <use style="fill:#1f77b4;stroke:#1f77b4;" x="139.625827" xlink:href="#m7fc31da981" y="79.929302"/>
     <use style="fill:#1f77b4;stroke:#1f77b4;" x="141.98756" xlink:href="#m7fc31da981" y="127.367821"/>
     <use style="fill:#1f77b4;stroke:#1f77b4;" x="144.385865" xlink:href="#m7fc31da981" y="127.367821"/>
     <use style="fill:#1f77b4;stroke:#1f77b4;" x="146.785278" xlink:href="#m7fc31da981" y="141.599377"/>
     <use style="fill:#1f77b4;stroke:#1f77b4;" x="149.186908" xlink:href="#m7fc31da981" y="70.441598"/>
     <use style="fill:#1f77b4;stroke:#1f77b4;" x="151.550857" xlink:href="#m7fc31da981" y="98.904709"/>
     <use style="fill:#1f77b4;stroke:#1f77b4;" x="153.951379" xlink:href="#m7fc31da981" y="155.830933"/>
     <use style="fill:#1f77b4;stroke:#1f77b4;" x="156.349684" xlink:href="#m7fc31da981" y="222.24486"/>
     <use style="fill:#1f77b4;stroke:#1f77b4;" x="158.711416" xlink:href="#m7fc31da981" y="184.294044"/>
     <use style="fill:#1f77b4;stroke:#1f77b4;" x="161.111938" xlink:href="#m7fc31da981" y="165.318636"/>
     <use style="fill:#1f77b4;stroke:#1f77b4;" x="163.513568" xlink:href="#m7fc31da981" y="165.318636"/>
     <use style="fill:#1f77b4;stroke:#1f77b4;" x="165.876408" xlink:href="#m7fc31da981" y="165.318636"/>
     <use style="fill:#1f77b4;stroke:#1f77b4;" x="168.274713" xlink:href="#m7fc31da981" y="160.574785"/>
     <use style="fill:#1f77b4;stroke:#1f77b4;" x="170.679668" xlink:href="#m7fc31da981" y="151.087081"/>
     <use style="fill:#1f77b4;stroke:#1f77b4;" x="173.041401" xlink:href="#m7fc31da981" y="136.855525"/>
     <use style="fill:#1f77b4;stroke:#1f77b4;" x="175.440814" xlink:href="#m7fc31da981" y="174.80634"/>
     <use style="fill:#1f77b4;stroke:#1f77b4;" x="177.840227" xlink:href="#m7fc31da981" y="184.294044"/>
     <use style="fill:#1f77b4;stroke:#1f77b4;" x="180.235208" xlink:href="#m7fc31da981" y="184.294044"/>
     <use style="fill:#1f77b4;stroke:#1f77b4;" x="182.59694" xlink:href="#m7fc31da981" y="184.294044"/>
     <use style="fill:#1f77b4;stroke:#1f77b4;" x="184.995245" xlink:href="#m7fc31da981" y="226.988712"/>
     <use style="fill:#1f77b4;stroke:#1f77b4;" x="187.395767" xlink:href="#m7fc31da981" y="208.013304"/>
     <use style="fill:#1f77b4;stroke:#1f77b4;" x="189.757499" xlink:href="#m7fc31da981" y="226.988712"/>
     <use style="fill:#1f77b4;stroke:#1f77b4;" x="192.156913" xlink:href="#m7fc31da981" y="236.476415"/>
     <use style="fill:#1f77b4;stroke:#1f77b4;" x="194.557434" xlink:href="#m7fc31da981" y="241.220267"/>
     <use style="fill:#1f77b4;stroke:#1f77b4;" x="196.922491" xlink:href="#m7fc31da981" y="236.476415"/>
     <use style="fill:#1f77b4;stroke:#1f77b4;" x="199.321905" xlink:href="#m7fc31da981" y="245.964119"/>
     <use style="fill:#1f77b4;stroke:#1f77b4;" x="201.722427" xlink:href="#m7fc31da981" y="208.013304"/>
     <use style="fill:#1f77b4;stroke:#1f77b4;" x="204.085267" xlink:href="#m7fc31da981" y="212.757156"/>
     <use style="fill:#1f77b4;stroke:#1f77b4;" x="206.48468" xlink:href="#m7fc31da981" y="212.757156"/>
     <use style="fill:#1f77b4;stroke:#1f77b4;" x="208.884094" xlink:href="#m7fc31da981" y="245.964119"/>
     <use style="fill:#1f77b4;stroke:#1f77b4;" x="211.283507" xlink:href="#m7fc31da981" y="264.939527"/>
     <use style="fill:#1f77b4;stroke:#1f77b4;" x="213.647456" xlink:href="#m7fc31da981" y="260.195675"/>
     <use style="fill:#1f77b4;stroke:#1f77b4;" x="216.047978" xlink:href="#m7fc31da981" y="269.683379"/>
     <use style="fill:#1f77b4;stroke:#1f77b4;" x="217.247685" xlink:href="#m7fc31da981" y="274.427231"/>
     <use style="fill:#1f77b4;stroke:#1f77b4;" x="218.429105" xlink:href="#m7fc31da981" y="283.914935"/>
     <use style="fill:#1f77b4;stroke:#1f77b4;" x="219.628812" xlink:href="#m7fc31da981" y="269.683379"/>
     <use style="fill:#1f77b4;stroke:#1f77b4;" x="220.828518" xlink:href="#m7fc31da981" y="274.427231"/>
     <use style="fill:#1f77b4;stroke:#1f77b4;" x="222.009384" xlink:href="#m7fc31da981" y="288.658787"/>
     <use style="fill:#1f77b4;stroke:#1f77b4;" x="223.209645" xlink:href="#m7fc31da981" y="288.658787"/>
     <use style="fill:#1f77b4;stroke:#1f77b4;" x="224.411014" xlink:href="#m7fc31da981" y="293.402639"/>
     <use style="fill:#1f77b4;stroke:#1f77b4;" x="225.592435" xlink:href="#m7fc31da981" y="293.402639"/>
     <use style="fill:#1f77b4;stroke:#1f77b4;" x="226.792141" xlink:href="#m7fc31da981" y="293.402639"/>
     <use style="fill:#1f77b4;stroke:#1f77b4;" x="227.991848" xlink:href="#m7fc31da981" y="298.146491"/>
     <use style="fill:#1f77b4;stroke:#1f77b4;" x="229.173822" xlink:href="#m7fc31da981" y="298.146491"/>
     <use style="fill:#1f77b4;stroke:#1f77b4;" x="230.374637" xlink:href="#m7fc31da981" y="298.146491"/>
     <use style="fill:#1f77b4;stroke:#1f77b4;" x="231.575453" xlink:href="#m7fc31da981" y="293.402639"/>
     <use style="fill:#1f77b4;stroke:#1f77b4;" x="232.757427" xlink:href="#m7fc31da981" y="298.146491"/>
     <use style="fill:#1f77b4;stroke:#1f77b4;" x="233.958242" xlink:href="#m7fc31da981" y="293.402639"/>
     <use style="fill:#1f77b4;stroke:#1f77b4;" x="235.158503" xlink:href="#m7fc31da981" y="298.146491"/>
     <use style="fill:#1f77b4;stroke:#1f77b4;" x="236.339369" xlink:href="#m7fc31da981" y="288.658787"/>
     <use style="fill:#1f77b4;stroke:#1f77b4;" x="239.924636" xlink:href="#m7fc31da981" y="298.146491"/>
     <use style="fill:#1f77b4;stroke:#1f77b4;" x="241.124896" xlink:href="#m7fc31da981" y="298.146491"/>
     <use style="fill:#1f77b4;stroke:#1f77b4;" x="242.325157" xlink:href="#m7fc31da981" y="298.146491"/>
     <use style="fill:#1f77b4;stroke:#1f77b4;" x="244.70573" xlink:href="#m7fc31da981" y="298.146491"/>
     <use style="fill:#1f77b4;stroke:#1f77b4;" x="245.905437" xlink:href="#m7fc31da981" y="302.890342"/>
     <use style="fill:#1f77b4;stroke:#1f77b4;" x="247.086857" xlink:href="#m7fc31da981" y="302.890342"/>
     <use style="fill:#1f77b4;stroke:#1f77b4;" x="248.28601" xlink:href="#m7fc31da981" y="302.890342"/>
     <use style="fill:#1f77b4;stroke:#1f77b4;" x="250.668245" xlink:href="#m7fc31da981" y="298.146491"/>
     <use style="fill:#1f77b4;stroke:#1f77b4;" x="251.867952" xlink:href="#m7fc31da981" y="302.890342"/>
     <use style="fill:#1f77b4;stroke:#1f77b4;" x="253.068213" xlink:href="#m7fc31da981" y="298.146491"/>
     <use style="fill:#1f77b4;stroke:#1f77b4;" x="254.249079" xlink:href="#m7fc31da981" y="298.146491"/>
     <use style="fill:#1f77b4;stroke:#1f77b4;" x="255.44934" xlink:href="#m7fc31da981" y="302.890342"/>
     <use style="fill:#1f77b4;stroke:#1f77b4;" x="256.647938" xlink:href="#m7fc31da981" y="298.146491"/>
     <use style="fill:#1f77b4;stroke:#1f77b4;" x="257.848199" xlink:href="#m7fc31da981" y="302.890342"/>
     <use style="fill:#1f77b4;stroke:#1f77b4;" x="259.029065" xlink:href="#m7fc31da981" y="302.890342"/>
     <use style="fill:#1f77b4;stroke:#1f77b4;" x="260.229326" xlink:href="#m7fc31da981" y="298.146491"/>
     <use style="fill:#1f77b4;stroke:#1f77b4;" x="261.429033" xlink:href="#m7fc31da981" y="302.890342"/>
     <use style="fill:#1f77b4;stroke:#1f77b4;" x="262.609899" xlink:href="#m7fc31da981" y="298.146491"/>
     <use style="fill:#1f77b4;stroke:#1f77b4;" x="263.809605" xlink:href="#m7fc31da981" y="302.890342"/>
     <use style="fill:#1f77b4;stroke:#1f77b4;" x="265.008204" xlink:href="#m7fc31da981" y="298.146491"/>
     <use style="fill:#1f77b4;stroke:#1f77b4;" x="266.209019" xlink:href="#m7fc31da981" y="298.146491"/>
     <use style="fill:#1f77b4;stroke:#1f77b4;" x="267.391547" xlink:href="#m7fc31da981" y="293.402639"/>
     <use style="fill:#1f77b4;stroke:#1f77b4;" x="269.790961" xlink:href="#m7fc31da981" y="298.146491"/>
     <use style="fill:#1f77b4;stroke:#1f77b4;" x="270.972935" xlink:href="#m7fc31da981" y="298.146491"/>
     <use style="fill:#1f77b4;stroke:#1f77b4;" x="274.553769" xlink:href="#m7fc31da981" y="298.146491"/>
     <use style="fill:#1f77b4;stroke:#1f77b4;" x="275.753476" xlink:href="#m7fc31da981" y="293.402639"/>
     <use style="fill:#1f77b4;stroke:#1f77b4;" x="276.953737" xlink:href="#m7fc31da981" y="298.146491"/>
     <use style="fill:#1f77b4;stroke:#1f77b4;" x="278.135157" xlink:href="#m7fc31da981" y="293.402639"/>
     <use style="fill:#1f77b4;stroke:#1f77b4;" x="279.334309" xlink:href="#m7fc31da981" y="298.146491"/>
     <use style="fill:#1f77b4;stroke:#1f77b4;" x="284.114296" xlink:href="#m7fc31da981" y="283.914935"/>
     <use style="fill:#1f77b4;stroke:#1f77b4;" x="286.497639" xlink:href="#m7fc31da981" y="298.146491"/>
     <use style="fill:#1f77b4;stroke:#1f77b4;" x="287.697346" xlink:href="#m7fc31da981" y="293.402639"/>
     <use style="fill:#1f77b4;stroke:#1f77b4;" x="290.078473" xlink:href="#m7fc31da981" y="293.402639"/>
     <use style="fill:#1f77b4;stroke:#1f77b4;" x="291.27818" xlink:href="#m7fc31da981" y="293.402639"/>
     <use style="fill:#1f77b4;stroke:#1f77b4;" x="292.464033" xlink:href="#m7fc31da981" y="298.146491"/>
     <use style="fill:#1f77b4;stroke:#1f77b4;" x="293.663185" xlink:href="#m7fc31da981" y="293.402639"/>
     <use style="fill:#1f77b4;stroke:#1f77b4;" x="294.865109" xlink:href="#m7fc31da981" y="302.890342"/>
     <use style="fill:#1f77b4;stroke:#1f77b4;" x="296.046529" xlink:href="#m7fc31da981" y="307.634194"/>
     <use style="fill:#1f77b4;stroke:#1f77b4;" x="297.246236" xlink:href="#m7fc31da981" y="288.658787"/>
     <use style="fill:#1f77b4;stroke:#1f77b4;" x="298.445942" xlink:href="#m7fc31da981" y="317.121898"/>
     <use style="fill:#1f77b4;stroke:#1f77b4;" x="299.631242" xlink:href="#m7fc31da981" y="317.121898"/>
     <use style="fill:#1f77b4;stroke:#1f77b4;" x="300.834827" xlink:href="#m7fc31da981" y="317.121898"/>
     <use style="fill:#1f77b4;stroke:#1f77b4;" x="302.015693" xlink:href="#m7fc31da981" y="312.378046"/>
     <use style="fill:#1f77b4;stroke:#1f77b4;" x="303.213738" xlink:href="#m7fc31da981" y="312.378046"/>
     <use style="fill:#1f77b4;stroke:#1f77b4;" x="304.41289" xlink:href="#m7fc31da981" y="307.634194"/>
     <use style="fill:#1f77b4;stroke:#1f77b4;" x="305.613705" xlink:href="#m7fc31da981" y="302.890342"/>
     <use style="fill:#1f77b4;stroke:#1f77b4;" x="306.797342" xlink:href="#m7fc31da981" y="298.146491"/>
     <use style="fill:#1f77b4;stroke:#1f77b4;" x="307.99982" xlink:href="#m7fc31da981" y="307.634194"/>
     <use style="fill:#1f77b4;stroke:#1f77b4;" x="309.180131" xlink:href="#m7fc31da981" y="302.890342"/>
     <use style="fill:#1f77b4;stroke:#1f77b4;" x="310.377622" xlink:href="#m7fc31da981" y="302.890342"/>
     <use style="fill:#1f77b4;stroke:#1f77b4;" x="311.578437" xlink:href="#m7fc31da981" y="298.146491"/>
     <use style="fill:#1f77b4;stroke:#1f77b4;" x="312.777035" xlink:href="#m7fc31da981" y="298.146491"/>
     <use style="fill:#1f77b4;stroke:#1f77b4;" x="313.958455" xlink:href="#m7fc31da981" y="312.378046"/>
     <use style="fill:#1f77b4;stroke:#1f77b4;" x="315.158716" xlink:href="#m7fc31da981" y="312.378046"/>
     <use style="fill:#1f77b4;stroke:#1f77b4;" x="316.358423" xlink:href="#m7fc31da981" y="307.634194"/>
     <use style="fill:#1f77b4;stroke:#1f77b4;" x="317.540397" xlink:href="#m7fc31da981" y="317.121898"/>
     <use style="fill:#1f77b4;stroke:#1f77b4;" x="318.740104" xlink:href="#m7fc31da981" y="317.121898"/>
     <use style="fill:#1f77b4;stroke:#1f77b4;" x="319.939811" xlink:href="#m7fc31da981" y="298.146491"/>
     <use style="fill:#1f77b4;stroke:#1f77b4;" x="321.121785" xlink:href="#m7fc31da981" y="298.146491"/>
     <use style="fill:#1f77b4;stroke:#1f77b4;" x="322.322046" xlink:href="#m7fc31da981" y="293.402639"/>
     <use style="fill:#1f77b4;stroke:#1f77b4;" x="323.521753" xlink:href="#m7fc31da981" y="298.146491"/>
     <use style="fill:#1f77b4;stroke:#1f77b4;" x="324.720351" xlink:href="#m7fc31da981" y="302.890342"/>
     <use style="fill:#1f77b4;stroke:#1f77b4;" x="325.901771" xlink:href="#m7fc31da981" y="302.890342"/>
     <use style="fill:#1f77b4;stroke:#1f77b4;" x="327.100924" xlink:href="#m7fc31da981" y="302.890342"/>
     <use style="fill:#1f77b4;stroke:#1f77b4;" x="328.300631" xlink:href="#m7fc31da981" y="288.658787"/>
     <use style="fill:#1f77b4;stroke:#1f77b4;" x="329.484822" xlink:href="#m7fc31da981" y="307.634194"/>
     <use style="fill:#1f77b4;stroke:#1f77b4;" x="330.684528" xlink:href="#m7fc31da981" y="312.378046"/>
     <use style="fill:#1f77b4;stroke:#1f77b4;" x="331.884235" xlink:href="#m7fc31da981" y="321.86575"/>
     <use style="fill:#1f77b4;stroke:#1f77b4;" x="333.065655" xlink:href="#m7fc31da981" y="326.609602"/>
     <use style="fill:#1f77b4;stroke:#1f77b4;" x="334.265916" xlink:href="#m7fc31da981" y="321.86575"/>
     <use style="fill:#1f77b4;stroke:#1f77b4;" x="335.466731" xlink:href="#m7fc31da981" y="326.609602"/>
     <use style="fill:#1f77b4;stroke:#1f77b4;" x="336.648706" xlink:href="#m7fc31da981" y="321.86575"/>
     <use style="fill:#1f77b4;stroke:#1f77b4;" x="337.850075" xlink:href="#m7fc31da981" y="293.402639"/>
     <use style="fill:#1f77b4;stroke:#1f77b4;" x="339.049782" xlink:href="#m7fc31da981" y="302.890342"/>
     <use style="fill:#1f77b4;stroke:#1f77b4;" x="340.230648" xlink:href="#m7fc31da981" y="298.146491"/>
     <use style="fill:#1f77b4;stroke:#1f77b4;" x="341.430354" xlink:href="#m7fc31da981" y="317.121898"/>
     <use style="fill:#1f77b4;stroke:#1f77b4;" x="342.629507" xlink:href="#m7fc31da981" y="293.402639"/>
     <use style="fill:#1f77b4;stroke:#1f77b4;" x="343.810373" xlink:href="#m7fc31da981" y="298.146491"/>
     <use style="fill:#1f77b4;stroke:#1f77b4;" x="345.011742" xlink:href="#m7fc31da981" y="293.402639"/>
     <use style="fill:#1f77b4;stroke:#1f77b4;" x="346.21422" xlink:href="#m7fc31da981" y="293.402639"/>
     <use style="fill:#1f77b4;stroke:#1f77b4;" x="347.393423" xlink:href="#m7fc31da981" y="293.402639"/>
     <use style="fill:#1f77b4;stroke:#1f77b4;" x="348.591468" xlink:href="#m7fc31da981" y="288.658787"/>
     <use style="fill:#1f77b4;stroke:#1f77b4;" x="349.791728" xlink:href="#m7fc31da981" y="288.658787"/>
     <use style="fill:#1f77b4;stroke:#1f77b4;" x="350.991989" xlink:href="#m7fc31da981" y="283.914935"/>
     <use style="fill:#1f77b4;stroke:#1f77b4;" x="352.176734" xlink:href="#m7fc31da981" y="288.658787"/>
     <use style="fill:#1f77b4;stroke:#1f77b4;" x="353.376441" xlink:href="#m7fc31da981" y="293.402639"/>
     <use style="fill:#1f77b4;stroke:#1f77b4;" x="354.558416" xlink:href="#m7fc31da981" y="298.146491"/>
     <use style="fill:#1f77b4;stroke:#1f77b4;" x="355.758676" xlink:href="#m7fc31da981" y="288.658787"/>
     <use style="fill:#1f77b4;stroke:#1f77b4;" x="356.958383" xlink:href="#m7fc31da981" y="293.402639"/>
     <use style="fill:#1f77b4;stroke:#1f77b4;" x="358.158644" xlink:href="#m7fc31da981" y="288.658787"/>
     <use style="fill:#1f77b4;stroke:#1f77b4;" x="359.340618" xlink:href="#m7fc31da981" y="283.914935"/>
     <use style="fill:#1f77b4;stroke:#1f77b4;" x="360.541987" xlink:href="#m7fc31da981" y="288.658787"/>
     <use style="fill:#1f77b4;stroke:#1f77b4;" x="361.723962" xlink:href="#m7fc31da981" y="293.402639"/>
     <use style="fill:#1f77b4;stroke:#1f77b4;" x="362.924223" xlink:href="#m7fc31da981" y="293.402639"/>
     <use style="fill:#1f77b4;stroke:#1f77b4;" x="364.125592" xlink:href="#m7fc31da981" y="288.658787"/>
     <use style="fill:#1f77b4;stroke:#1f77b4;" x="365.307566" xlink:href="#m7fc31da981" y="298.146491"/>
     <use style="fill:#1f77b4;stroke:#1f77b4;" x="366.507273" xlink:href="#m7fc31da981" y="298.146491"/>
     <use style="fill:#1f77b4;stroke:#1f77b4;" x="367.708088" xlink:href="#m7fc31da981" y="298.146491"/>
     <use style="fill:#1f77b4;stroke:#1f77b4;" x="368.890616" xlink:href="#m7fc31da981" y="298.146491"/>
     <use style="fill:#1f77b4;stroke:#1f77b4;" x="370.090877" xlink:href="#m7fc31da981" y="298.146491"/>
     <use style="fill:#1f77b4;stroke:#1f77b4;" x="371.290584" xlink:href="#m7fc31da981" y="293.402639"/>
     <use style="fill:#1f77b4;stroke:#1f77b4;" x="372.472004" xlink:href="#m7fc31da981" y="288.658787"/>
     <use style="fill:#1f77b4;stroke:#1f77b4;" x="373.671157" xlink:href="#m7fc31da981" y="293.402639"/>
     <use style="fill:#1f77b4;stroke:#1f77b4;" x="374.871418" xlink:href="#m7fc31da981" y="288.658787"/>
     <use style="fill:#1f77b4;stroke:#1f77b4;" x="376.071125" xlink:href="#m7fc31da981" y="302.890342"/>
     <use style="fill:#1f77b4;stroke:#1f77b4;" x="377.252545" xlink:href="#m7fc31da981" y="321.86575"/>
     <use style="fill:#1f77b4;stroke:#1f77b4;" x="378.452251" xlink:href="#m7fc31da981" y="298.146491"/>
     <use style="fill:#1f77b4;stroke:#1f77b4;" x="379.653066" xlink:href="#m7fc31da981" y="293.402639"/>
     <use style="fill:#1f77b4;stroke:#1f77b4;" x="380.833378" xlink:href="#m7fc31da981" y="293.402639"/>
     <use style="fill:#1f77b4;stroke:#1f77b4;" x="382.038627" xlink:href="#m7fc31da981" y="293.402639"/>
     <use style="fill:#1f77b4;stroke:#1f77b4;" x="383.219493" xlink:href="#m7fc31da981" y="298.146491"/>
     <use style="fill:#1f77b4;stroke:#1f77b4;" x="384.418645" xlink:href="#m7fc31da981" y="298.146491"/>
     <use style="fill:#1f77b4;stroke:#1f77b4;" x="385.61946" xlink:href="#m7fc31da981" y="298.146491"/>
     <use style="fill:#1f77b4;stroke:#1f77b4;" x="386.80088" xlink:href="#m7fc31da981" y="298.146491"/>
     <use style="fill:#1f77b4;stroke:#1f77b4;" x="388.000587" xlink:href="#m7fc31da981" y="293.402639"/>
     <use style="fill:#1f77b4;stroke:#1f77b4;" x="389.199186" xlink:href="#m7fc31da981" y="302.890342"/>
     <use style="fill:#1f77b4;stroke:#1f77b4;" x="390.400555" xlink:href="#m7fc31da981" y="293.402639"/>
     <use style="fill:#1f77b4;stroke:#1f77b4;" x="391.581421" xlink:href="#m7fc31da981" y="298.146491"/>
     <use style="fill:#1f77b4;stroke:#1f77b4;" x="392.781128" xlink:href="#m7fc31da981" y="298.146491"/>
     <use style="fill:#1f77b4;stroke:#1f77b4;" x="393.980834" xlink:href="#m7fc31da981" y="298.146491"/>
     <use style="fill:#1f77b4;stroke:#1f77b4;" x="395.161146" xlink:href="#m7fc31da981" y="293.402639"/>
     <use style="fill:#1f77b4;stroke:#1f77b4;" x="396.360853" xlink:href="#m7fc31da981" y="288.658787"/>
     <use style="fill:#1f77b4;stroke:#1f77b4;" x="397.561114" xlink:href="#m7fc31da981" y="298.146491"/>
     <use style="fill:#1f77b4;stroke:#1f77b4;" x="398.74198" xlink:href="#m7fc31da981" y="298.146491"/>
     <use style="fill:#1f77b4;stroke:#1f77b4;" x="399.942241" xlink:href="#m7fc31da981" y="298.146491"/>
     <use style="fill:#1f77b4;stroke:#1f77b4;" x="401.141948" xlink:href="#m7fc31da981" y="298.146491"/>
     <use style="fill:#1f77b4;stroke:#1f77b4;" x="402.342208" xlink:href="#m7fc31da981" y="298.146491"/>
     <use style="fill:#1f77b4;stroke:#1f77b4;" x="403.523629" xlink:href="#m7fc31da981" y="298.146491"/>
     <use style="fill:#1f77b4;stroke:#1f77b4;" x="404.722781" xlink:href="#m7fc31da981" y="298.146491"/>
     <use style="fill:#1f77b4;stroke:#1f77b4;" x="405.923596" xlink:href="#m7fc31da981" y="298.146491"/>
     <use style="fill:#1f77b4;stroke:#1f77b4;" x="407.104462" xlink:href="#m7fc31da981" y="298.146491"/>
     <use style="fill:#1f77b4;stroke:#1f77b4;" x="408.304169" xlink:href="#m7fc31da981" y="298.146491"/>
     <use style="fill:#1f77b4;stroke:#1f77b4;" x="409.502768" xlink:href="#m7fc31da981" y="298.146491"/>
     <use style="fill:#1f77b4;stroke:#1f77b4;" x="410.684188" xlink:href="#m7fc31da981" y="302.890342"/>
     <use style="fill:#1f77b4;stroke:#1f77b4;" x="411.884449" xlink:href="#m7fc31da981" y="298.146491"/>
     <use style="fill:#1f77b4;stroke:#1f77b4;" x="413.083601" xlink:href="#m7fc31da981" y="302.890342"/>
     <use style="fill:#1f77b4;stroke:#1f77b4;" x="414.283308" xlink:href="#m7fc31da981" y="302.890342"/>
     <use style="fill:#1f77b4;stroke:#1f77b4;" x="415.465837" xlink:href="#m7fc31da981" y="302.890342"/>
     <use style="fill:#1f77b4;stroke:#1f77b4;" x="417.864696" xlink:href="#m7fc31da981" y="298.146491"/>
     <use style="fill:#1f77b4;stroke:#1f77b4;" x="419.046116" xlink:href="#m7fc31da981" y="302.890342"/>
     <use style="fill:#1f77b4;stroke:#1f77b4;" x="420.245823" xlink:href="#m7fc31da981" y="302.890342"/>
     <use style="fill:#1f77b4;stroke:#1f77b4;" x="421.44553" xlink:href="#m7fc31da981" y="298.146491"/>
     <use style="fill:#1f77b4;stroke:#1f77b4;" x="423.828319" xlink:href="#m7fc31da981" y="302.890342"/>
     <use style="fill:#1f77b4;stroke:#1f77b4;" x="425.02858" xlink:href="#m7fc31da981" y="298.146491"/>
     <use style="fill:#1f77b4;stroke:#1f77b4;" x="426.21" xlink:href="#m7fc31da981" y="302.890342"/>
     <use style="fill:#1f77b4;stroke:#1f77b4;" x="427.409707" xlink:href="#m7fc31da981" y="298.146491"/>
     <use style="fill:#1f77b4;stroke:#1f77b4;" x="428.608859" xlink:href="#m7fc31da981" y="298.146491"/>
     <use style="fill:#1f77b4;stroke:#1f77b4;" x="429.790834" xlink:href="#m7fc31da981" y="298.146491"/>
     <use style="fill:#1f77b4;stroke:#1f77b4;" x="435.777731" xlink:href="#m7fc31da981" y="326.609602"/>
     <use style="fill:#1f77b4;stroke:#1f77b4;" x="438.157749" xlink:href="#m7fc31da981" y="317.121898"/>
     <use style="fill:#1f77b4;stroke:#1f77b4;" x="439.35801" xlink:href="#m7fc31da981" y="326.609602"/>
     <use style="fill:#1f77b4;stroke:#1f77b4;" x="440.53943" xlink:href="#m7fc31da981" y="326.609602"/>
     <use style="fill:#1f77b4;stroke:#1f77b4;" x="441.738029" xlink:href="#m7fc31da981" y="326.609602"/>
     <use style="fill:#1f77b4;stroke:#1f77b4;" x="444.134672" xlink:href="#m7fc31da981" y="326.609602"/>
     <use style="fill:#1f77b4;stroke:#1f77b4;" x="445.314984" xlink:href="#m7fc31da981" y="307.634194"/>
     <use style="fill:#1f77b4;stroke:#1f77b4;" x="446.513582" xlink:href="#m7fc31da981" y="302.890342"/>
     <use style="fill:#1f77b4;stroke:#1f77b4;" x="447.711626" xlink:href="#m7fc31da981" y="302.890342"/>
     <use style="fill:#1f77b4;stroke:#1f77b4;" x="448.910225" xlink:href="#m7fc31da981" y="302.890342"/>
     <use style="fill:#1f77b4;stroke:#1f77b4;" x="450.091091" xlink:href="#m7fc31da981" y="307.634194"/>
     <use style="fill:#1f77b4;stroke:#1f77b4;" x="451.290798" xlink:href="#m7fc31da981" y="302.890342"/>
     <use style="fill:#1f77b4;stroke:#1f77b4;" x="452.491058" xlink:href="#m7fc31da981" y="302.890342"/>
     <use style="fill:#1f77b4;stroke:#1f77b4;" x="453.672479" xlink:href="#m7fc31da981" y="302.890342"/>
     <use style="fill:#1f77b4;stroke:#1f77b4;" x="456.070784" xlink:href="#m7fc31da981" y="302.890342"/>
     <use style="fill:#1f77b4;stroke:#1f77b4;" x="458.453019" xlink:href="#m7fc31da981" y="302.890342"/>
     <use style="fill:#1f77b4;stroke:#1f77b4;" x="459.65328" xlink:href="#m7fc31da981" y="302.890342"/>
     <use style="fill:#1f77b4;stroke:#1f77b4;" x="463.234114" xlink:href="#m7fc31da981" y="302.890342"/>
     <use style="fill:#1f77b4;stroke:#1f77b4;" x="466.81661" xlink:href="#m7fc31da981" y="298.146491"/>
     <use style="fill:#1f77b4;stroke:#1f77b4;" x="470.402985" xlink:href="#m7fc31da981" y="298.146491"/>
     <use style="fill:#1f77b4;stroke:#1f77b4;" x="472.783558" xlink:href="#m7fc31da981" y="302.890342"/>
     <use style="fill:#1f77b4;stroke:#1f77b4;" x="478.766576" xlink:href="#m7fc31da981" y="317.121898"/>
     <use style="fill:#1f77b4;stroke:#1f77b4;" x="479.947996" xlink:href="#m7fc31da981" y="331.353454"/>
     <use style="fill:#1f77b4;stroke:#1f77b4;" x="482.346855" xlink:href="#m7fc31da981" y="321.86575"/>
     <use style="fill:#1f77b4;stroke:#1f77b4;" x="483.528275" xlink:href="#m7fc31da981" y="321.86575"/>
     <use style="fill:#1f77b4;stroke:#1f77b4;" x="484.728536" xlink:href="#m7fc31da981" y="326.609602"/>
     <use style="fill:#1f77b4;stroke:#1f77b4;" x="485.928243" xlink:href="#m7fc31da981" y="326.609602"/>
     <use style="fill:#1f77b4;stroke:#1f77b4;" x="487.109663" xlink:href="#m7fc31da981" y="326.609602"/>
     <use style="fill:#1f77b4;stroke:#1f77b4;" x="488.30937" xlink:href="#m7fc31da981" y="326.609602"/>
     <use style="fill:#1f77b4;stroke:#1f77b4;" x="490.708783" xlink:href="#m7fc31da981" y="298.146491"/>
     <use style="fill:#1f77b4;stroke:#1f77b4;" x="493.091019" xlink:href="#m7fc31da981" y="302.890342"/>
     <use style="fill:#1f77b4;stroke:#1f77b4;" x="494.273547" xlink:href="#m7fc31da981" y="302.890342"/>
     <use style="fill:#1f77b4;stroke:#1f77b4;" x="503.840169" xlink:href="#m7fc31da981" y="298.146491"/>
     <use style="fill:#1f77b4;stroke:#1f77b4;" x="507.421557" xlink:href="#m7fc31da981" y="293.402639"/>
     <use style="fill:#1f77b4;stroke:#1f77b4;" x="508.62071" xlink:href="#m7fc31da981" y="298.146491"/>
     <use style="fill:#1f77b4;stroke:#1f77b4;" x="513.381855" xlink:href="#m7fc31da981" y="298.146491"/>
     <use style="fill:#1f77b4;stroke:#1f77b4;" x="514.582116" xlink:href="#m7fc31da981" y="302.890342"/>
     <use style="fill:#1f77b4;stroke:#1f77b4;" x="515.782377" xlink:href="#m7fc31da981" y="307.634194"/>
     <use style="fill:#1f77b4;stroke:#1f77b4;" x="516.963243" xlink:href="#m7fc31da981" y="298.146491"/>
     <use style="fill:#1f77b4;stroke:#1f77b4;" x="518.16295" xlink:href="#m7fc31da981" y="298.146491"/>
     <use style="fill:#1f77b4;stroke:#1f77b4;" x="519.362657" xlink:href="#m7fc31da981" y="298.146491"/>
     <use style="fill:#1f77b4;stroke:#1f77b4;" x="520.563472" xlink:href="#m7fc31da981" y="302.890342"/>
     <use style="fill:#1f77b4;stroke:#1f77b4;" x="521.744338" xlink:href="#m7fc31da981" y="298.146491"/>
     <use style="fill:#1f77b4;stroke:#1f77b4;" x="522.944045" xlink:href="#m7fc31da981" y="298.146491"/>
     <use style="fill:#1f77b4;stroke:#1f77b4;" x="524.144305" xlink:href="#m7fc31da981" y="302.890342"/>
     <use style="fill:#1f77b4;stroke:#1f77b4;" x="525.325171" xlink:href="#m7fc31da981" y="298.146491"/>
     <use style="fill:#1f77b4;stroke:#1f77b4;" x="526.524878" xlink:href="#m7fc31da981" y="298.146491"/>
     <use style="fill:#1f77b4;stroke:#1f77b4;" x="528.907113" xlink:href="#m7fc31da981" y="298.146491"/>
     <use style="fill:#1f77b4;stroke:#1f77b4;" x="530.107928" xlink:href="#m7fc31da981" y="298.146491"/>
     <use style="fill:#1f77b4;stroke:#1f77b4;" x="531.308189" xlink:href="#m7fc31da981" y="302.890342"/>
     <use style="fill:#1f77b4;stroke:#1f77b4;" x="532.490164" xlink:href="#m7fc31da981" y="298.146491"/>
     <use style="fill:#1f77b4;stroke:#1f77b4;" x="533.692641" xlink:href="#m7fc31da981" y="298.146491"/>
     <use style="fill:#1f77b4;stroke:#1f77b4;" x="534.891794" xlink:href="#m7fc31da981" y="298.146491"/>
     <use style="fill:#1f77b4;stroke:#1f77b4;" x="537.272367" xlink:href="#m7fc31da981" y="293.402639"/>
     <use style="fill:#1f77b4;stroke:#1f77b4;" x="538.45822" xlink:href="#m7fc31da981" y="298.146491"/>
     <use style="fill:#1f77b4;stroke:#1f77b4;" x="539.657372" xlink:href="#m7fc31da981" y="298.146491"/>
     <use style="fill:#1f77b4;stroke:#1f77b4;" x="540.859296" xlink:href="#m7fc31da981" y="302.890342"/>
     <use style="fill:#1f77b4;stroke:#1f77b4;" x="542.04127" xlink:href="#m7fc31da981" y="302.890342"/>
     <use style="fill:#1f77b4;stroke:#1f77b4;" x="544.440129" xlink:href="#m7fc31da981" y="298.146491"/>
     <use style="fill:#1f77b4;stroke:#1f77b4;" x="545.639836" xlink:href="#m7fc31da981" y="302.890342"/>
     <use style="fill:#1f77b4;stroke:#1f77b4;" x="546.820148" xlink:href="#m7fc31da981" y="302.890342"/>
     <use style="fill:#1f77b4;stroke:#1f77b4;" x="549.219562" xlink:href="#m7fc31da981" y="298.146491"/>
     <use style="fill:#1f77b4;stroke:#1f77b4;" x="551.600689" xlink:href="#m7fc31da981" y="298.146491"/>
     <use style="fill:#1f77b4;stroke:#1f77b4;" x="552.800395" xlink:href="#m7fc31da981" y="298.146491"/>
     <use style="fill:#1f77b4;stroke:#1f77b4;" x="554.000102" xlink:href="#m7fc31da981" y="298.146491"/>
     <use style="fill:#1f77b4;stroke:#1f77b4;" x="555.182076" xlink:href="#m7fc31da981" y="302.890342"/>
     <use style="fill:#1f77b4;stroke:#1f77b4;" x="556.381783" xlink:href="#m7fc31da981" y="302.890342"/>
     <use style="fill:#1f77b4;stroke:#1f77b4;" x="557.58149" xlink:href="#m7fc31da981" y="307.634194"/>
     <use style="fill:#1f77b4;stroke:#1f77b4;" x="561.162324" xlink:href="#m7fc31da981" y="307.634194"/>
     <use style="fill:#1f77b4;stroke:#1f77b4;" x="562.34319" xlink:href="#m7fc31da981" y="312.378046"/>
     <use style="fill:#1f77b4;stroke:#1f77b4;" x="565.925132" xlink:href="#m7fc31da981" y="307.634194"/>
     <use style="fill:#1f77b4;stroke:#1f77b4;" x="568.324545" xlink:href="#m7fc31da981" y="312.378046"/>
     <use style="fill:#1f77b4;stroke:#1f77b4;" x="569.508182" xlink:href="#m7fc31da981" y="312.378046"/>
     <use style="fill:#1f77b4;stroke:#1f77b4;" x="570.707889" xlink:href="#m7fc31da981" y="317.121898"/>
     <use style="fill:#1f77b4;stroke:#1f77b4;" x="574.290385" xlink:href="#m7fc31da981" y="317.121898"/>
     <use style="fill:#1f77b4;stroke:#1f77b4;" x="575.492862" xlink:href="#m7fc31da981" y="317.121898"/>
     <use style="fill:#1f77b4;stroke:#1f77b4;" x="576.677607" xlink:href="#m7fc31da981" y="317.121898"/>
     <use style="fill:#1f77b4;stroke:#1f77b4;" x="579.076467" xlink:href="#m7fc31da981" y="317.121898"/>
     <use style="fill:#1f77b4;stroke:#1f77b4;" x="580.257333" xlink:href="#m7fc31da981" y="321.86575"/>
     <use style="fill:#1f77b4;stroke:#1f77b4;" x="581.457593" xlink:href="#m7fc31da981" y="317.121898"/>
     <use style="fill:#1f77b4;stroke:#1f77b4;" x="582.656746" xlink:href="#m7fc31da981" y="317.121898"/>
     <use style="fill:#1f77b4;stroke:#1f77b4;" x="583.841491" xlink:href="#m7fc31da981" y="317.121898"/>
     <use style="fill:#1f77b4;stroke:#1f77b4;" x="585.041198" xlink:href="#m7fc31da981" y="317.121898"/>
     <use style="fill:#1f77b4;stroke:#1f77b4;" x="592.203974" xlink:href="#m7fc31da981" y="288.658787"/>
     <use style="fill:#1f77b4;stroke:#1f77b4;" x="593.40368" xlink:href="#m7fc31da981" y="312.378046"/>
     <use style="fill:#1f77b4;stroke:#1f77b4;" x="595.785361" xlink:href="#m7fc31da981" y="302.890342"/>
     <use style="fill:#1f77b4;stroke:#1f77b4;" x="596.984514" xlink:href="#m7fc31da981" y="317.121898"/>
     <use style="fill:#1f77b4;stroke:#1f77b4;" x="598.166488" xlink:href="#m7fc31da981" y="317.121898"/>
     <use style="fill:#1f77b4;stroke:#1f77b4;" x="599.365641" xlink:href="#m7fc31da981" y="317.121898"/>
     <use style="fill:#1f77b4;stroke:#1f77b4;" x="600.565902" xlink:href="#m7fc31da981" y="317.121898"/>
     <use style="fill:#1f77b4;stroke:#1f77b4;" x="601.766163" xlink:href="#m7fc31da981" y="312.378046"/>
     <use style="fill:#1f77b4;stroke:#1f77b4;" x="602.947583" xlink:href="#m7fc31da981" y="317.121898"/>
     <use style="fill:#1f77b4;stroke:#1f77b4;" x="605.346442" xlink:href="#m7fc31da981" y="312.378046"/>
     <use style="fill:#1f77b4;stroke:#1f77b4;" x="606.527308" xlink:href="#m7fc31da981" y="302.890342"/>
     <use style="fill:#1f77b4;stroke:#1f77b4;" x="607.727569" xlink:href="#m7fc31da981" y="317.121898"/>
     <use style="fill:#1f77b4;stroke:#1f77b4;" x="608.927276" xlink:href="#m7fc31da981" y="317.121898"/>
     <use style="fill:#1f77b4;stroke:#1f77b4;" x="610.108142" xlink:href="#m7fc31da981" y="317.121898"/>
     <use style="fill:#1f77b4;stroke:#1f77b4;" x="611.307295" xlink:href="#m7fc31da981" y="317.121898"/>
     <use style="fill:#1f77b4;stroke:#1f77b4;" x="612.507555" xlink:href="#m7fc31da981" y="317.121898"/>
     <use style="fill:#1f77b4;stroke:#1f77b4;" x="613.690638" xlink:href="#m7fc31da981" y="312.378046"/>
     <use style="fill:#1f77b4;stroke:#1f77b4;" x="614.890345" xlink:href="#m7fc31da981" y="317.121898"/>
     <use style="fill:#1f77b4;stroke:#1f77b4;" x="617.288096" xlink:href="#m7fc31da981" y="312.378046"/>
     <use style="fill:#1f77b4;stroke:#1f77b4;" x="618.47007" xlink:href="#m7fc31da981" y="312.378046"/>
     <use style="fill:#1f77b4;stroke:#1f77b4;" x="619.670331" xlink:href="#m7fc31da981" y="317.121898"/>
     <use style="fill:#1f77b4;stroke:#1f77b4;" x="620.870592" xlink:href="#m7fc31da981" y="317.121898"/>
     <use style="fill:#1f77b4;stroke:#1f77b4;" x="622.052012" xlink:href="#m7fc31da981" y="312.378046"/>
     <use style="fill:#1f77b4;stroke:#1f77b4;" x="623.251165" xlink:href="#m7fc31da981" y="317.121898"/>
     <use style="fill:#1f77b4;stroke:#1f77b4;" x="624.450872" xlink:href="#m7fc31da981" y="317.121898"/>
     <use style="fill:#1f77b4;stroke:#1f77b4;" x="626.831999" xlink:href="#m7fc31da981" y="312.378046"/>
     <use style="fill:#1f77b4;stroke:#1f77b4;" x="628.032259" xlink:href="#m7fc31da981" y="312.378046"/>
     <use style="fill:#1f77b4;stroke:#1f77b4;" x="629.214788" xlink:href="#m7fc31da981" y="312.378046"/>
     <use style="fill:#1f77b4;stroke:#1f77b4;" x="631.616972" xlink:href="#m7fc31da981" y="312.378046"/>
     <use style="fill:#1f77b4;stroke:#1f77b4;" x="632.798392" xlink:href="#m7fc31da981" y="312.378046"/>
     <use style="fill:#1f77b4;stroke:#1f77b4;" x="633.998099" xlink:href="#m7fc31da981" y="312.378046"/>
     <use style="fill:#1f77b4;stroke:#1f77b4;" x="637.577824" xlink:href="#m7fc31da981" y="336.097306"/>
    </g>
   </g>
   <g id="matplotlib.axis_1">
    <g id="xtick_1">
     <g id="line2d_1">
      <defs>
       <path d="M 0 0 
L 0 3.5 
" id="mfd654ef7bb" style="stroke:#000000;stroke-width:0.8;"/>
      </defs>
      <g>
       <use style="stroke:#000000;stroke-width:0.8;" x="118.134176" xlink:href="#mfd654ef7bb" y="349.8768"/>
      </g>
     </g>
     <g id="text_1">
      <!-- 0 -->
      <defs>
       <path d="M 31.78125 66.40625 
Q 24.171875 66.40625 20.328125 58.90625 
Q 16.5 51.421875 16.5 36.375 
Q 16.5 21.390625 20.328125 13.890625 
Q 24.171875 6.390625 31.78125 6.390625 
Q 39.453125 6.390625 43.28125 13.890625 
Q 47.125 21.390625 47.125 36.375 
Q 47.125 51.421875 43.28125 58.90625 
Q 39.453125 66.40625 31.78125 66.40625 
z
M 31.78125 74.21875 
Q 44.046875 74.21875 50.515625 64.515625 
Q 56.984375 54.828125 56.984375 36.375 
Q 56.984375 17.96875 50.515625 8.265625 
Q 44.046875 -1.421875 31.78125 -1.421875 
Q 19.53125 -1.421875 13.0625 8.265625 
Q 6.59375 17.96875 6.59375 36.375 
Q 6.59375 54.828125 13.0625 64.515625 
Q 19.53125 74.21875 31.78125 74.21875 
z
" id="DejaVuSans-48"/>
      </defs>
      <g transform="translate(114.952926 364.475237)scale(0.1 -0.1)">
       <use xlink:href="#DejaVuSans-48"/>
      </g>
     </g>
    </g>
    <g id="xtick_2">
     <g id="line2d_2">
      <g>
       <use style="stroke:#000000;stroke-width:0.8;" x="231.814286" xlink:href="#mfd654ef7bb" y="349.8768"/>
      </g>
     </g>
     <g id="text_2">
      <!-- 200 -->
      <defs>
       <path d="M 19.1875 8.296875 
L 53.609375 8.296875 
L 53.609375 0 
L 7.328125 0 
L 7.328125 8.296875 
Q 12.9375 14.109375 22.625 23.890625 
Q 32.328125 33.6875 34.8125 36.53125 
Q 39.546875 41.84375 41.421875 45.53125 
Q 43.3125 49.21875 43.3125 52.78125 
Q 43.3125 58.59375 39.234375 62.25 
Q 35.15625 65.921875 28.609375 65.921875 
Q 23.96875 65.921875 18.8125 64.3125 
Q 13.671875 62.703125 7.8125 59.421875 
L 7.8125 69.390625 
Q 13.765625 71.78125 18.9375 73 
Q 24.125 74.21875 28.421875 74.21875 
Q 39.75 74.21875 46.484375 68.546875 
Q 53.21875 62.890625 53.21875 53.421875 
Q 53.21875 48.921875 51.53125 44.890625 
Q 49.859375 40.875 45.40625 35.40625 
Q 44.1875 33.984375 37.640625 27.21875 
Q 31.109375 20.453125 19.1875 8.296875 
z
" id="DejaVuSans-50"/>
      </defs>
      <g transform="translate(222.270536 364.475237)scale(0.1 -0.1)">
       <use xlink:href="#DejaVuSans-50"/>
       <use x="63.623047" xlink:href="#DejaVuSans-48"/>
       <use x="127.246094" xlink:href="#DejaVuSans-48"/>
      </g>
     </g>
    </g>
    <g id="xtick_3">
     <g id="line2d_3">
      <g>
       <use style="stroke:#000000;stroke-width:0.8;" x="345.494396" xlink:href="#mfd654ef7bb" y="349.8768"/>
      </g>
     </g>
     <g id="text_3">
      <!-- 400 -->
      <defs>
       <path d="M 37.796875 64.3125 
L 12.890625 25.390625 
L 37.796875 25.390625 
z
M 35.203125 72.90625 
L 47.609375 72.90625 
L 47.609375 25.390625 
L 58.015625 25.390625 
L 58.015625 17.1875 
L 47.609375 17.1875 
L 47.609375 0 
L 37.796875 0 
L 37.796875 17.1875 
L 4.890625 17.1875 
L 4.890625 26.703125 
z
" id="DejaVuSans-52"/>
      </defs>
      <g transform="translate(335.950646 364.475237)scale(0.1 -0.1)">
       <use xlink:href="#DejaVuSans-52"/>
       <use x="63.623047" xlink:href="#DejaVuSans-48"/>
       <use x="127.246094" xlink:href="#DejaVuSans-48"/>
      </g>
     </g>
    </g>
    <g id="xtick_4">
     <g id="line2d_4">
      <g>
       <use style="stroke:#000000;stroke-width:0.8;" x="459.174506" xlink:href="#mfd654ef7bb" y="349.8768"/>
      </g>
     </g>
     <g id="text_4">
      <!-- 600 -->
      <defs>
       <path d="M 33.015625 40.375 
Q 26.375 40.375 22.484375 35.828125 
Q 18.609375 31.296875 18.609375 23.390625 
Q 18.609375 15.53125 22.484375 10.953125 
Q 26.375 6.390625 33.015625 6.390625 
Q 39.65625 6.390625 43.53125 10.953125 
Q 47.40625 15.53125 47.40625 23.390625 
Q 47.40625 31.296875 43.53125 35.828125 
Q 39.65625 40.375 33.015625 40.375 
z
M 52.59375 71.296875 
L 52.59375 62.3125 
Q 48.875 64.0625 45.09375 64.984375 
Q 41.3125 65.921875 37.59375 65.921875 
Q 27.828125 65.921875 22.671875 59.328125 
Q 17.53125 52.734375 16.796875 39.40625 
Q 19.671875 43.65625 24.015625 45.921875 
Q 28.375 48.1875 33.59375 48.1875 
Q 44.578125 48.1875 50.953125 41.515625 
Q 57.328125 34.859375 57.328125 23.390625 
Q 57.328125 12.15625 50.6875 5.359375 
Q 44.046875 -1.421875 33.015625 -1.421875 
Q 20.359375 -1.421875 13.671875 8.265625 
Q 6.984375 17.96875 6.984375 36.375 
Q 6.984375 53.65625 15.1875 63.9375 
Q 23.390625 74.21875 37.203125 74.21875 
Q 40.921875 74.21875 44.703125 73.484375 
Q 48.484375 72.75 52.59375 71.296875 
z
" id="DejaVuSans-54"/>
      </defs>
      <g transform="translate(449.630756 364.475237)scale(0.1 -0.1)">
       <use xlink:href="#DejaVuSans-54"/>
       <use x="63.623047" xlink:href="#DejaVuSans-48"/>
       <use x="127.246094" xlink:href="#DejaVuSans-48"/>
      </g>
     </g>
    </g>
    <g id="xtick_5">
     <g id="line2d_5">
      <g>
       <use style="stroke:#000000;stroke-width:0.8;" x="572.854616" xlink:href="#mfd654ef7bb" y="349.8768"/>
      </g>
     </g>
     <g id="text_5">
      <!-- 800 -->
      <defs>
       <path d="M 31.78125 34.625 
Q 24.75 34.625 20.71875 30.859375 
Q 16.703125 27.09375 16.703125 20.515625 
Q 16.703125 13.921875 20.71875 10.15625 
Q 24.75 6.390625 31.78125 6.390625 
Q 38.8125 6.390625 42.859375 10.171875 
Q 46.921875 13.96875 46.921875 20.515625 
Q 46.921875 27.09375 42.890625 30.859375 
Q 38.875 34.625 31.78125 34.625 
z
M 21.921875 38.8125 
Q 15.578125 40.375 12.03125 44.71875 
Q 8.5 49.078125 8.5 55.328125 
Q 8.5 64.0625 14.71875 69.140625 
Q 20.953125 74.21875 31.78125 74.21875 
Q 42.671875 74.21875 48.875 69.140625 
Q 55.078125 64.0625 55.078125 55.328125 
Q 55.078125 49.078125 51.53125 44.71875 
Q 48 40.375 41.703125 38.8125 
Q 48.828125 37.15625 52.796875 32.3125 
Q 56.78125 27.484375 56.78125 20.515625 
Q 56.78125 9.90625 50.3125 4.234375 
Q 43.84375 -1.421875 31.78125 -1.421875 
Q 19.734375 -1.421875 13.25 4.234375 
Q 6.78125 9.90625 6.78125 20.515625 
Q 6.78125 27.484375 10.78125 32.3125 
Q 14.796875 37.15625 21.921875 38.8125 
z
M 18.3125 54.390625 
Q 18.3125 48.734375 21.84375 45.5625 
Q 25.390625 42.390625 31.78125 42.390625 
Q 38.140625 42.390625 41.71875 45.5625 
Q 45.3125 48.734375 45.3125 54.390625 
Q 45.3125 60.0625 41.71875 63.234375 
Q 38.140625 66.40625 31.78125 66.40625 
Q 25.390625 66.40625 21.84375 63.234375 
Q 18.3125 60.0625 18.3125 54.390625 
z
" id="DejaVuSans-56"/>
      </defs>
      <g transform="translate(563.310866 364.475237)scale(0.1 -0.1)">
       <use xlink:href="#DejaVuSans-56"/>
       <use x="63.623047" xlink:href="#DejaVuSans-48"/>
       <use x="127.246094" xlink:href="#DejaVuSans-48"/>
      </g>
     </g>
    </g>
    <g id="text_6">
     <!-- Distance (m) -->
     <defs>
      <path d="M 19.671875 64.796875 
L 19.671875 8.109375 
L 31.59375 8.109375 
Q 46.6875 8.109375 53.6875 14.9375 
Q 60.6875 21.78125 60.6875 36.53125 
Q 60.6875 51.171875 53.6875 57.984375 
Q 46.6875 64.796875 31.59375 64.796875 
z
M 9.8125 72.90625 
L 30.078125 72.90625 
Q 51.265625 72.90625 61.171875 64.09375 
Q 71.09375 55.28125 71.09375 36.53125 
Q 71.09375 17.671875 61.125 8.828125 
Q 51.171875 0 30.078125 0 
L 9.8125 0 
z
" id="DejaVuSans-68"/>
      <path d="M 9.421875 54.6875 
L 18.40625 54.6875 
L 18.40625 0 
L 9.421875 0 
z
M 9.421875 75.984375 
L 18.40625 75.984375 
L 18.40625 64.59375 
L 9.421875 64.59375 
z
" id="DejaVuSans-105"/>
      <path d="M 44.28125 53.078125 
L 44.28125 44.578125 
Q 40.484375 46.53125 36.375 47.5 
Q 32.28125 48.484375 27.875 48.484375 
Q 21.1875 48.484375 17.84375 46.4375 
Q 14.5 44.390625 14.5 40.28125 
Q 14.5 37.15625 16.890625 35.375 
Q 19.28125 33.59375 26.515625 31.984375 
L 29.59375 31.296875 
Q 39.15625 29.25 43.1875 25.515625 
Q 47.21875 21.78125 47.21875 15.09375 
Q 47.21875 7.46875 41.1875 3.015625 
Q 35.15625 -1.421875 24.609375 -1.421875 
Q 20.21875 -1.421875 15.453125 -0.5625 
Q 10.6875 0.296875 5.421875 2 
L 5.421875 11.28125 
Q 10.40625 8.6875 15.234375 7.390625 
Q 20.0625 6.109375 24.8125 6.109375 
Q 31.15625 6.109375 34.5625 8.28125 
Q 37.984375 10.453125 37.984375 14.40625 
Q 37.984375 18.0625 35.515625 20.015625 
Q 33.0625 21.96875 24.703125 23.78125 
L 21.578125 24.515625 
Q 13.234375 26.265625 9.515625 29.90625 
Q 5.8125 33.546875 5.8125 39.890625 
Q 5.8125 47.609375 11.28125 51.796875 
Q 16.75 56 26.8125 56 
Q 31.78125 56 36.171875 55.265625 
Q 40.578125 54.546875 44.28125 53.078125 
z
" id="DejaVuSans-115"/>
      <path d="M 18.3125 70.21875 
L 18.3125 54.6875 
L 36.8125 54.6875 
L 36.8125 47.703125 
L 18.3125 47.703125 
L 18.3125 18.015625 
Q 18.3125 11.328125 20.140625 9.421875 
Q 21.96875 7.515625 27.59375 7.515625 
L 36.8125 7.515625 
L 36.8125 0 
L 27.59375 0 
Q 17.1875 0 13.234375 3.875 
Q 9.28125 7.765625 9.28125 18.015625 
L 9.28125 47.703125 
L 2.6875 47.703125 
L 2.6875 54.6875 
L 9.28125 54.6875 
L 9.28125 70.21875 
z
" id="DejaVuSans-116"/>
      <path d="M 34.28125 27.484375 
Q 23.390625 27.484375 19.1875 25 
Q 14.984375 22.515625 14.984375 16.5 
Q 14.984375 11.71875 18.140625 8.90625 
Q 21.296875 6.109375 26.703125 6.109375 
Q 34.1875 6.109375 38.703125 11.40625 
Q 43.21875 16.703125 43.21875 25.484375 
L 43.21875 27.484375 
z
M 52.203125 31.203125 
L 52.203125 0 
L 43.21875 0 
L 43.21875 8.296875 
Q 40.140625 3.328125 35.546875 0.953125 
Q 30.953125 -1.421875 24.3125 -1.421875 
Q 15.921875 -1.421875 10.953125 3.296875 
Q 6 8.015625 6 15.921875 
Q 6 25.140625 12.171875 29.828125 
Q 18.359375 34.515625 30.609375 34.515625 
L 43.21875 34.515625 
L 43.21875 35.40625 
Q 43.21875 41.609375 39.140625 45 
Q 35.0625 48.390625 27.6875 48.390625 
Q 23 48.390625 18.546875 47.265625 
Q 14.109375 46.140625 10.015625 43.890625 
L 10.015625 52.203125 
Q 14.9375 54.109375 19.578125 55.046875 
Q 24.21875 56 28.609375 56 
Q 40.484375 56 46.34375 49.84375 
Q 52.203125 43.703125 52.203125 31.203125 
z
" id="DejaVuSans-97"/>
      <path d="M 54.890625 33.015625 
L 54.890625 0 
L 45.90625 0 
L 45.90625 32.71875 
Q 45.90625 40.484375 42.875 44.328125 
Q 39.84375 48.1875 33.796875 48.1875 
Q 26.515625 48.1875 22.3125 43.546875 
Q 18.109375 38.921875 18.109375 30.90625 
L 18.109375 0 
L 9.078125 0 
L 9.078125 54.6875 
L 18.109375 54.6875 
L 18.109375 46.1875 
Q 21.34375 51.125 25.703125 53.5625 
Q 30.078125 56 35.796875 56 
Q 45.21875 56 50.046875 50.171875 
Q 54.890625 44.34375 54.890625 33.015625 
z
" id="DejaVuSans-110"/>
      <path d="M 48.78125 52.59375 
L 48.78125 44.1875 
Q 44.96875 46.296875 41.140625 47.34375 
Q 37.3125 48.390625 33.40625 48.390625 
Q 24.65625 48.390625 19.8125 42.84375 
Q 14.984375 37.3125 14.984375 27.296875 
Q 14.984375 17.28125 19.8125 11.734375 
Q 24.65625 6.203125 33.40625 6.203125 
Q 37.3125 6.203125 41.140625 7.25 
Q 44.96875 8.296875 48.78125 10.40625 
L 48.78125 2.09375 
Q 45.015625 0.34375 40.984375 -0.53125 
Q 36.96875 -1.421875 32.421875 -1.421875 
Q 20.0625 -1.421875 12.78125 6.34375 
Q 5.515625 14.109375 5.515625 27.296875 
Q 5.515625 40.671875 12.859375 48.328125 
Q 20.21875 56 33.015625 56 
Q 37.15625 56 41.109375 55.140625 
Q 45.0625 54.296875 48.78125 52.59375 
z
" id="DejaVuSans-99"/>
      <path d="M 56.203125 29.59375 
L 56.203125 25.203125 
L 14.890625 25.203125 
Q 15.484375 15.921875 20.484375 11.0625 
Q 25.484375 6.203125 34.421875 6.203125 
Q 39.59375 6.203125 44.453125 7.46875 
Q 49.3125 8.734375 54.109375 11.28125 
L 54.109375 2.78125 
Q 49.265625 0.734375 44.1875 -0.34375 
Q 39.109375 -1.421875 33.890625 -1.421875 
Q 20.796875 -1.421875 13.15625 6.1875 
Q 5.515625 13.8125 5.515625 26.8125 
Q 5.515625 40.234375 12.765625 48.109375 
Q 20.015625 56 32.328125 56 
Q 43.359375 56 49.78125 48.890625 
Q 56.203125 41.796875 56.203125 29.59375 
z
M 47.21875 32.234375 
Q 47.125 39.59375 43.09375 43.984375 
Q 39.0625 48.390625 32.421875 48.390625 
Q 24.90625 48.390625 20.390625 44.140625 
Q 15.875 39.890625 15.1875 32.171875 
z
" id="DejaVuSans-101"/>
      <path id="DejaVuSans-32"/>
      <path d="M 31 75.875 
Q 24.46875 64.65625 21.28125 53.65625 
Q 18.109375 42.671875 18.109375 31.390625 
Q 18.109375 20.125 21.3125 9.0625 
Q 24.515625 -2 31 -13.1875 
L 23.1875 -13.1875 
Q 15.875 -1.703125 12.234375 9.375 
Q 8.59375 20.453125 8.59375 31.390625 
Q 8.59375 42.28125 12.203125 53.3125 
Q 15.828125 64.359375 23.1875 75.875 
z
" id="DejaVuSans-40"/>
      <path d="M 52 44.1875 
Q 55.375 50.25 60.0625 53.125 
Q 64.75 56 71.09375 56 
Q 79.640625 56 84.28125 50.015625 
Q 88.921875 44.046875 88.921875 33.015625 
L 88.921875 0 
L 79.890625 0 
L 79.890625 32.71875 
Q 79.890625 40.578125 77.09375 44.375 
Q 74.3125 48.1875 68.609375 48.1875 
Q 61.625 48.1875 57.5625 43.546875 
Q 53.515625 38.921875 53.515625 30.90625 
L 53.515625 0 
L 44.484375 0 
L 44.484375 32.71875 
Q 44.484375 40.625 41.703125 44.40625 
Q 38.921875 48.1875 33.109375 48.1875 
Q 26.21875 48.1875 22.15625 43.53125 
Q 18.109375 38.875 18.109375 30.90625 
L 18.109375 0 
L 9.078125 0 
L 9.078125 54.6875 
L 18.109375 54.6875 
L 18.109375 46.1875 
Q 21.1875 51.21875 25.484375 53.609375 
Q 29.78125 56 35.6875 56 
Q 41.65625 56 45.828125 52.96875 
Q 50 49.953125 52 44.1875 
z
" id="DejaVuSans-109"/>
      <path d="M 8.015625 75.875 
L 15.828125 75.875 
Q 23.140625 64.359375 26.78125 53.3125 
Q 30.421875 42.28125 30.421875 31.390625 
Q 30.421875 20.453125 26.78125 9.375 
Q 23.140625 -1.703125 15.828125 -13.1875 
L 8.015625 -13.1875 
Q 14.5 -2 17.703125 9.0625 
Q 20.90625 20.125 20.90625 31.390625 
Q 20.90625 42.671875 17.703125 53.65625 
Q 14.5 64.65625 8.015625 75.875 
z
" id="DejaVuSans-41"/>
     </defs>
     <g transform="translate(345.632563 378.153363)scale(0.1 -0.1)">
      <use xlink:href="#DejaVuSans-68"/>
      <use x="77.001953" xlink:href="#DejaVuSans-105"/>
      <use x="104.785156" xlink:href="#DejaVuSans-115"/>
      <use x="156.884766" xlink:href="#DejaVuSans-116"/>
      <use x="196.09375" xlink:href="#DejaVuSans-97"/>
      <use x="257.373047" xlink:href="#DejaVuSans-110"/>
      <use x="320.751953" xlink:href="#DejaVuSans-99"/>
      <use x="375.732422" xlink:href="#DejaVuSans-101"/>
      <use x="437.255859" xlink:href="#DejaVuSans-32"/>
      <use x="469.042969" xlink:href="#DejaVuSans-40"/>
      <use x="508.056641" xlink:href="#DejaVuSans-109"/>
      <use x="605.46875" xlink:href="#DejaVuSans-41"/>
     </g>
    </g>
   </g>
   <g id="matplotlib.axis_2">
    <g id="ytick_1">
     <g id="line2d_6">
      <defs>
       <path d="M 0 0 
L -3.5 0 
" id="m14c791cde9" style="stroke:#000000;stroke-width:0.8;"/>
      </defs>
      <g>
       <use style="stroke:#000000;stroke-width:0.8;" x="92.16" xlink:href="#m14c791cde9" y="317.121898"/>
      </g>
     </g>
     <g id="text_7">
      <!-- −110 -->
      <defs>
       <path d="M 10.59375 35.5 
L 73.1875 35.5 
L 73.1875 27.203125 
L 10.59375 27.203125 
z
" id="DejaVuSans-8722"/>
       <path d="M 12.40625 8.296875 
L 28.515625 8.296875 
L 28.515625 63.921875 
L 10.984375 60.40625 
L 10.984375 69.390625 
L 28.421875 72.90625 
L 38.28125 72.90625 
L 38.28125 8.296875 
L 54.390625 8.296875 
L 54.390625 0 
L 12.40625 0 
z
" id="DejaVuSans-49"/>
      </defs>
      <g transform="translate(57.692812 320.921117)scale(0.1 -0.1)">
       <use xlink:href="#DejaVuSans-8722"/>
       <use x="83.789062" xlink:href="#DejaVuSans-49"/>
       <use x="147.412109" xlink:href="#DejaVuSans-49"/>
       <use x="211.035156" xlink:href="#DejaVuSans-48"/>
      </g>
     </g>
    </g>
    <g id="ytick_2">
     <g id="line2d_7">
      <g>
       <use style="stroke:#000000;stroke-width:0.8;" x="92.16" xlink:href="#m14c791cde9" y="269.683379"/>
      </g>
     </g>
     <g id="text_8">
      <!-- −100 -->
      <g transform="translate(57.692812 273.482598)scale(0.1 -0.1)">
       <use xlink:href="#DejaVuSans-8722"/>
       <use x="83.789062" xlink:href="#DejaVuSans-49"/>
       <use x="147.412109" xlink:href="#DejaVuSans-48"/>
       <use x="211.035156" xlink:href="#DejaVuSans-48"/>
      </g>
     </g>
    </g>
    <g id="ytick_3">
     <g id="line2d_8">
      <g>
       <use style="stroke:#000000;stroke-width:0.8;" x="92.16" xlink:href="#m14c791cde9" y="222.24486"/>
      </g>
     </g>
     <g id="text_9">
      <!-- −90 -->
      <defs>
       <path d="M 10.984375 1.515625 
L 10.984375 10.5 
Q 14.703125 8.734375 18.5 7.8125 
Q 22.3125 6.890625 25.984375 6.890625 
Q 35.75 6.890625 40.890625 13.453125 
Q 46.046875 20.015625 46.78125 33.40625 
Q 43.953125 29.203125 39.59375 26.953125 
Q 35.25 24.703125 29.984375 24.703125 
Q 19.046875 24.703125 12.671875 31.3125 
Q 6.296875 37.9375 6.296875 49.421875 
Q 6.296875 60.640625 12.9375 67.421875 
Q 19.578125 74.21875 30.609375 74.21875 
Q 43.265625 74.21875 49.921875 64.515625 
Q 56.59375 54.828125 56.59375 36.375 
Q 56.59375 19.140625 48.40625 8.859375 
Q 40.234375 -1.421875 26.421875 -1.421875 
Q 22.703125 -1.421875 18.890625 -0.6875 
Q 15.09375 0.046875 10.984375 1.515625 
z
M 30.609375 32.421875 
Q 37.25 32.421875 41.125 36.953125 
Q 45.015625 41.5 45.015625 49.421875 
Q 45.015625 57.28125 41.125 61.84375 
Q 37.25 66.40625 30.609375 66.40625 
Q 23.96875 66.40625 20.09375 61.84375 
Q 16.21875 57.28125 16.21875 49.421875 
Q 16.21875 41.5 20.09375 36.953125 
Q 23.96875 32.421875 30.609375 32.421875 
z
" id="DejaVuSans-57"/>
      </defs>
      <g transform="translate(64.055312 226.044078)scale(0.1 -0.1)">
       <use xlink:href="#DejaVuSans-8722"/>
       <use x="83.789062" xlink:href="#DejaVuSans-57"/>
       <use x="147.412109" xlink:href="#DejaVuSans-48"/>
      </g>
     </g>
    </g>
    <g id="ytick_4">
     <g id="line2d_9">
      <g>
       <use style="stroke:#000000;stroke-width:0.8;" x="92.16" xlink:href="#m14c791cde9" y="174.80634"/>
      </g>
     </g>
     <g id="text_10">
      <!-- −80 -->
      <g transform="translate(64.055312 178.605559)scale(0.1 -0.1)">
       <use xlink:href="#DejaVuSans-8722"/>
       <use x="83.789062" xlink:href="#DejaVuSans-56"/>
       <use x="147.412109" xlink:href="#DejaVuSans-48"/>
      </g>
     </g>
    </g>
    <g id="ytick_5">
     <g id="line2d_10">
      <g>
       <use style="stroke:#000000;stroke-width:0.8;" x="92.16" xlink:href="#m14c791cde9" y="127.367821"/>
      </g>
     </g>
     <g id="text_11">
      <!-- −70 -->
      <defs>
       <path d="M 8.203125 72.90625 
L 55.078125 72.90625 
L 55.078125 68.703125 
L 28.609375 0 
L 18.3125 0 
L 43.21875 64.59375 
L 8.203125 64.59375 
z
" id="DejaVuSans-55"/>
      </defs>
      <g transform="translate(64.055312 131.16704)scale(0.1 -0.1)">
       <use xlink:href="#DejaVuSans-8722"/>
       <use x="83.789062" xlink:href="#DejaVuSans-55"/>
       <use x="147.412109" xlink:href="#DejaVuSans-48"/>
      </g>
     </g>
    </g>
    <g id="ytick_6">
     <g id="line2d_11">
      <g>
       <use style="stroke:#000000;stroke-width:0.8;" x="92.16" xlink:href="#m14c791cde9" y="79.929302"/>
      </g>
     </g>
     <g id="text_12">
      <!-- −60 -->
      <g transform="translate(64.055312 83.728521)scale(0.1 -0.1)">
       <use xlink:href="#DejaVuSans-8722"/>
       <use x="83.789062" xlink:href="#DejaVuSans-54"/>
       <use x="147.412109" xlink:href="#DejaVuSans-48"/>
      </g>
     </g>
    </g>
    <g id="text_13">
     <!-- RSSI (dBm) -->
     <defs>
      <path d="M 44.390625 34.1875 
Q 47.5625 33.109375 50.5625 29.59375 
Q 53.5625 26.078125 56.59375 19.921875 
L 66.609375 0 
L 56 0 
L 46.6875 18.703125 
Q 43.0625 26.03125 39.671875 28.421875 
Q 36.28125 30.8125 30.421875 30.8125 
L 19.671875 30.8125 
L 19.671875 0 
L 9.8125 0 
L 9.8125 72.90625 
L 32.078125 72.90625 
Q 44.578125 72.90625 50.734375 67.671875 
Q 56.890625 62.453125 56.890625 51.90625 
Q 56.890625 45.015625 53.6875 40.46875 
Q 50.484375 35.9375 44.390625 34.1875 
z
M 19.671875 64.796875 
L 19.671875 38.921875 
L 32.078125 38.921875 
Q 39.203125 38.921875 42.84375 42.21875 
Q 46.484375 45.515625 46.484375 51.90625 
Q 46.484375 58.296875 42.84375 61.546875 
Q 39.203125 64.796875 32.078125 64.796875 
z
" id="DejaVuSans-82"/>
      <path d="M 53.515625 70.515625 
L 53.515625 60.890625 
Q 47.90625 63.578125 42.921875 64.890625 
Q 37.9375 66.21875 33.296875 66.21875 
Q 25.25 66.21875 20.875 63.09375 
Q 16.5 59.96875 16.5 54.203125 
Q 16.5 49.359375 19.40625 46.890625 
Q 22.3125 44.4375 30.421875 42.921875 
L 36.375 41.703125 
Q 47.40625 39.59375 52.65625 34.296875 
Q 57.90625 29 57.90625 20.125 
Q 57.90625 9.515625 50.796875 4.046875 
Q 43.703125 -1.421875 29.984375 -1.421875 
Q 24.8125 -1.421875 18.96875 -0.25 
Q 13.140625 0.921875 6.890625 3.21875 
L 6.890625 13.375 
Q 12.890625 10.015625 18.65625 8.296875 
Q 24.421875 6.59375 29.984375 6.59375 
Q 38.421875 6.59375 43.015625 9.90625 
Q 47.609375 13.234375 47.609375 19.390625 
Q 47.609375 24.75 44.3125 27.78125 
Q 41.015625 30.8125 33.5 32.328125 
L 27.484375 33.5 
Q 16.453125 35.6875 11.515625 40.375 
Q 6.59375 45.0625 6.59375 53.421875 
Q 6.59375 63.09375 13.40625 68.65625 
Q 20.21875 74.21875 32.171875 74.21875 
Q 37.3125 74.21875 42.625 73.28125 
Q 47.953125 72.359375 53.515625 70.515625 
z
" id="DejaVuSans-83"/>
      <path d="M 9.8125 72.90625 
L 19.671875 72.90625 
L 19.671875 0 
L 9.8125 0 
z
" id="DejaVuSans-73"/>
      <path d="M 45.40625 46.390625 
L 45.40625 75.984375 
L 54.390625 75.984375 
L 54.390625 0 
L 45.40625 0 
L 45.40625 8.203125 
Q 42.578125 3.328125 38.25 0.953125 
Q 33.9375 -1.421875 27.875 -1.421875 
Q 17.96875 -1.421875 11.734375 6.484375 
Q 5.515625 14.40625 5.515625 27.296875 
Q 5.515625 40.1875 11.734375 48.09375 
Q 17.96875 56 27.875 56 
Q 33.9375 56 38.25 53.625 
Q 42.578125 51.265625 45.40625 46.390625 
z
M 14.796875 27.296875 
Q 14.796875 17.390625 18.875 11.75 
Q 22.953125 6.109375 30.078125 6.109375 
Q 37.203125 6.109375 41.296875 11.75 
Q 45.40625 17.390625 45.40625 27.296875 
Q 45.40625 37.203125 41.296875 42.84375 
Q 37.203125 48.484375 30.078125 48.484375 
Q 22.953125 48.484375 18.875 42.84375 
Q 14.796875 37.203125 14.796875 27.296875 
z
" id="DejaVuSans-100"/>
      <path d="M 19.671875 34.8125 
L 19.671875 8.109375 
L 35.5 8.109375 
Q 43.453125 8.109375 47.28125 11.40625 
Q 51.125 14.703125 51.125 21.484375 
Q 51.125 28.328125 47.28125 31.5625 
Q 43.453125 34.8125 35.5 34.8125 
z
M 19.671875 64.796875 
L 19.671875 42.828125 
L 34.28125 42.828125 
Q 41.5 42.828125 45.03125 45.53125 
Q 48.578125 48.25 48.578125 53.8125 
Q 48.578125 59.328125 45.03125 62.0625 
Q 41.5 64.796875 34.28125 64.796875 
z
M 9.8125 72.90625 
L 35.015625 72.90625 
Q 46.296875 72.90625 52.390625 68.21875 
Q 58.5 63.53125 58.5 54.890625 
Q 58.5 48.1875 55.375 44.234375 
Q 52.25 40.28125 46.1875 39.3125 
Q 53.46875 37.75 57.5 32.78125 
Q 61.53125 27.828125 61.53125 20.40625 
Q 61.53125 10.640625 54.890625 5.3125 
Q 48.25 0 35.984375 0 
L 9.8125 0 
z
" id="DejaVuSans-66"/>
     </defs>
     <g transform="translate(51.613125 226.788881)rotate(-90)scale(0.1 -0.1)">
      <use xlink:href="#DejaVuSans-82"/>
      <use x="69.482422" xlink:href="#DejaVuSans-83"/>
      <use x="132.958984" xlink:href="#DejaVuSans-83"/>
      <use x="196.435547" xlink:href="#DejaVuSans-73"/>
      <use x="225.927734" xlink:href="#DejaVuSans-32"/>
      <use x="257.714844" xlink:href="#DejaVuSans-40"/>
      <use x="296.728516" xlink:href="#DejaVuSans-100"/>
      <use x="360.205078" xlink:href="#DejaVuSans-66"/>
      <use x="428.808594" xlink:href="#DejaVuSans-109"/>
      <use x="526.220703" xlink:href="#DejaVuSans-41"/>
     </g>
    </g>
   </g>
   <g id="line2d_12">
    <path clip-path="url(#pe3b4c173dc)" d="M 118.134176 289.280626 
L 170.679668 292.340722 
L 227.991848 295.452559 
L 287.697346 298.476877 
L 354.558416 301.635352 
L 425.02858 304.737894 
L 494.273547 307.589579 
L 580.257333 310.894729 
L 637.577824 312.969975 
L 637.577824 312.969975 
" style="fill:none;stroke:#ff0000;stroke-linecap:square;stroke-width:1.5;"/>
   </g>
   <g id="patch_3">
    <path d="M 92.16 349.8768 
L 92.16 47.1744 
" style="fill:none;stroke:#000000;stroke-linecap:square;stroke-linejoin:miter;stroke-width:0.8;"/>
   </g>
   <g id="patch_4">
    <path d="M 663.552 349.8768 
L 663.552 47.1744 
" style="fill:none;stroke:#000000;stroke-linecap:square;stroke-linejoin:miter;stroke-width:0.8;"/>
   </g>
   <g id="patch_5">
    <path d="M 92.16 349.8768 
L 663.552 349.8768 
" style="fill:none;stroke:#000000;stroke-linecap:square;stroke-linejoin:miter;stroke-width:0.8;"/>
   </g>
   <g id="patch_6">
    <path d="M 92.16 47.1744 
L 663.552 47.1744 
" style="fill:none;stroke:#000000;stroke-linecap:square;stroke-linejoin:miter;stroke-width:0.8;"/>
   </g>
   <g id="text_14">
    <!-- RSSI against Distance for the Range Test -->
    <defs>
     <path d="M 45.40625 27.984375 
Q 45.40625 37.75 41.375 43.109375 
Q 37.359375 48.484375 30.078125 48.484375 
Q 22.859375 48.484375 18.828125 43.109375 
Q 14.796875 37.75 14.796875 27.984375 
Q 14.796875 18.265625 18.828125 12.890625 
Q 22.859375 7.515625 30.078125 7.515625 
Q 37.359375 7.515625 41.375 12.890625 
Q 45.40625 18.265625 45.40625 27.984375 
z
M 54.390625 6.78125 
Q 54.390625 -7.171875 48.1875 -13.984375 
Q 42 -20.796875 29.203125 -20.796875 
Q 24.46875 -20.796875 20.265625 -20.09375 
Q 16.0625 -19.390625 12.109375 -17.921875 
L 12.109375 -9.1875 
Q 16.0625 -11.328125 19.921875 -12.34375 
Q 23.78125 -13.375 27.78125 -13.375 
Q 36.625 -13.375 41.015625 -8.765625 
Q 45.40625 -4.15625 45.40625 5.171875 
L 45.40625 9.625 
Q 42.625 4.78125 38.28125 2.390625 
Q 33.9375 0 27.875 0 
Q 17.828125 0 11.671875 7.65625 
Q 5.515625 15.328125 5.515625 27.984375 
Q 5.515625 40.671875 11.671875 48.328125 
Q 17.828125 56 27.875 56 
Q 33.9375 56 38.28125 53.609375 
Q 42.625 51.21875 45.40625 46.390625 
L 45.40625 54.6875 
L 54.390625 54.6875 
z
" id="DejaVuSans-103"/>
     <path d="M 37.109375 75.984375 
L 37.109375 68.5 
L 28.515625 68.5 
Q 23.6875 68.5 21.796875 66.546875 
Q 19.921875 64.59375 19.921875 59.515625 
L 19.921875 54.6875 
L 34.71875 54.6875 
L 34.71875 47.703125 
L 19.921875 47.703125 
L 19.921875 0 
L 10.890625 0 
L 10.890625 47.703125 
L 2.296875 47.703125 
L 2.296875 54.6875 
L 10.890625 54.6875 
L 10.890625 58.5 
Q 10.890625 67.625 15.140625 71.796875 
Q 19.390625 75.984375 28.609375 75.984375 
z
" id="DejaVuSans-102"/>
     <path d="M 30.609375 48.390625 
Q 23.390625 48.390625 19.1875 42.75 
Q 14.984375 37.109375 14.984375 27.296875 
Q 14.984375 17.484375 19.15625 11.84375 
Q 23.34375 6.203125 30.609375 6.203125 
Q 37.796875 6.203125 41.984375 11.859375 
Q 46.1875 17.53125 46.1875 27.296875 
Q 46.1875 37.015625 41.984375 42.703125 
Q 37.796875 48.390625 30.609375 48.390625 
z
M 30.609375 56 
Q 42.328125 56 49.015625 48.375 
Q 55.71875 40.765625 55.71875 27.296875 
Q 55.71875 13.875 49.015625 6.21875 
Q 42.328125 -1.421875 30.609375 -1.421875 
Q 18.84375 -1.421875 12.171875 6.21875 
Q 5.515625 13.875 5.515625 27.296875 
Q 5.515625 40.765625 12.171875 48.375 
Q 18.84375 56 30.609375 56 
z
" id="DejaVuSans-111"/>
     <path d="M 41.109375 46.296875 
Q 39.59375 47.171875 37.8125 47.578125 
Q 36.03125 48 33.890625 48 
Q 26.265625 48 22.1875 43.046875 
Q 18.109375 38.09375 18.109375 28.8125 
L 18.109375 0 
L 9.078125 0 
L 9.078125 54.6875 
L 18.109375 54.6875 
L 18.109375 46.1875 
Q 20.953125 51.171875 25.484375 53.578125 
Q 30.03125 56 36.53125 56 
Q 37.453125 56 38.578125 55.875 
Q 39.703125 55.765625 41.0625 55.515625 
z
" id="DejaVuSans-114"/>
     <path d="M 54.890625 33.015625 
L 54.890625 0 
L 45.90625 0 
L 45.90625 32.71875 
Q 45.90625 40.484375 42.875 44.328125 
Q 39.84375 48.1875 33.796875 48.1875 
Q 26.515625 48.1875 22.3125 43.546875 
Q 18.109375 38.921875 18.109375 30.90625 
L 18.109375 0 
L 9.078125 0 
L 9.078125 75.984375 
L 18.109375 75.984375 
L 18.109375 46.1875 
Q 21.34375 51.125 25.703125 53.5625 
Q 30.078125 56 35.796875 56 
Q 45.21875 56 50.046875 50.171875 
Q 54.890625 44.34375 54.890625 33.015625 
z
" id="DejaVuSans-104"/>
     <path d="M -0.296875 72.90625 
L 61.375 72.90625 
L 61.375 64.59375 
L 35.5 64.59375 
L 35.5 0 
L 25.59375 0 
L 25.59375 64.59375 
L -0.296875 64.59375 
z
" id="DejaVuSans-84"/>
    </defs>
    <g transform="translate(254.450063 41.1744)scale(0.12 -0.12)">
     <use xlink:href="#DejaVuSans-82"/>
     <use x="69.482422" xlink:href="#DejaVuSans-83"/>
     <use x="132.958984" xlink:href="#DejaVuSans-83"/>
     <use x="196.435547" xlink:href="#DejaVuSans-73"/>
     <use x="225.927734" xlink:href="#DejaVuSans-32"/>
     <use x="257.714844" xlink:href="#DejaVuSans-97"/>
     <use x="318.994141" xlink:href="#DejaVuSans-103"/>
     <use x="382.470703" xlink:href="#DejaVuSans-97"/>
     <use x="443.75" xlink:href="#DejaVuSans-105"/>
     <use x="471.533203" xlink:href="#DejaVuSans-110"/>
     <use x="534.912109" xlink:href="#DejaVuSans-115"/>
     <use x="587.011719" xlink:href="#DejaVuSans-116"/>
     <use x="626.220703" xlink:href="#DejaVuSans-32"/>
     <use x="658.007812" xlink:href="#DejaVuSans-68"/>
     <use x="735.009766" xlink:href="#DejaVuSans-105"/>
     <use x="762.792969" xlink:href="#DejaVuSans-115"/>
     <use x="814.892578" xlink:href="#DejaVuSans-116"/>
     <use x="854.101562" xlink:href="#DejaVuSans-97"/>
     <use x="915.380859" xlink:href="#DejaVuSans-110"/>
     <use x="978.759766" xlink:href="#DejaVuSans-99"/>
     <use x="1033.740234" xlink:href="#DejaVuSans-101"/>
     <use x="1095.263672" xlink:href="#DejaVuSans-32"/>
     <use x="1127.050781" xlink:href="#DejaVuSans-102"/>
     <use x="1162.255859" xlink:href="#DejaVuSans-111"/>
     <use x="1223.4375" xlink:href="#DejaVuSans-114"/>
     <use x="1264.550781" xlink:href="#DejaVuSans-32"/>
     <use x="1296.337891" xlink:href="#DejaVuSans-116"/>
     <use x="1335.546875" xlink:href="#DejaVuSans-104"/>
     <use x="1398.925781" xlink:href="#DejaVuSans-101"/>
     <use x="1460.449219" xlink:href="#DejaVuSans-32"/>
     <use x="1492.236328" xlink:href="#DejaVuSans-82"/>
     <use x="1561.6875" xlink:href="#DejaVuSans-97"/>
     <use x="1622.966797" xlink:href="#DejaVuSans-110"/>
     <use x="1686.345703" xlink:href="#DejaVuSans-103"/>
     <use x="1749.822266" xlink:href="#DejaVuSans-101"/>
     <use x="1811.345703" xlink:href="#DejaVuSans-32"/>
     <use x="1843.132812" xlink:href="#DejaVuSans-84"/>
     <use x="1903.951172" xlink:href="#DejaVuSans-101"/>
     <use x="1965.474609" xlink:href="#DejaVuSans-115"/>
     <use x="2017.574219" xlink:href="#DejaVuSans-116"/>
    </g>
   </g>
   <g id="legend_1">
    <g id="patch_7">
     <path d="M 530.811375 84.53065 
L 656.552 84.53065 
Q 658.552 84.53065 658.552 82.53065 
L 658.552 54.1744 
Q 658.552 52.1744 656.552 52.1744 
L 530.811375 52.1744 
Q 528.811375 52.1744 528.811375 54.1744 
L 528.811375 82.53065 
Q 528.811375 84.53065 530.811375 84.53065 
z
" style="fill:#ffffff;opacity:0.8;stroke:#cccccc;stroke-linejoin:miter;"/>
    </g>
    <g id="line2d_13">
     <path d="M 532.811375 60.272837 
L 552.811375 60.272837 
" style="fill:none;stroke:#ff0000;stroke-linecap:square;stroke-width:1.5;"/>
    </g>
    <g id="line2d_14"/>
    <g id="text_15">
     <!-- Curve of best fit -->
     <defs>
      <path d="M 64.40625 67.28125 
L 64.40625 56.890625 
Q 59.421875 61.53125 53.78125 63.8125 
Q 48.140625 66.109375 41.796875 66.109375 
Q 29.296875 66.109375 22.65625 58.46875 
Q 16.015625 50.828125 16.015625 36.375 
Q 16.015625 21.96875 22.65625 14.328125 
Q 29.296875 6.6875 41.796875 6.6875 
Q 48.140625 6.6875 53.78125 8.984375 
Q 59.421875 11.28125 64.40625 15.921875 
L 64.40625 5.609375 
Q 59.234375 2.09375 53.4375 0.328125 
Q 47.65625 -1.421875 41.21875 -1.421875 
Q 24.65625 -1.421875 15.125 8.703125 
Q 5.609375 18.84375 5.609375 36.375 
Q 5.609375 53.953125 15.125 64.078125 
Q 24.65625 74.21875 41.21875 74.21875 
Q 47.75 74.21875 53.53125 72.484375 
Q 59.328125 70.75 64.40625 67.28125 
z
" id="DejaVuSans-67"/>
      <path d="M 8.5 21.578125 
L 8.5 54.6875 
L 17.484375 54.6875 
L 17.484375 21.921875 
Q 17.484375 14.15625 20.5 10.265625 
Q 23.53125 6.390625 29.59375 6.390625 
Q 36.859375 6.390625 41.078125 11.03125 
Q 45.3125 15.671875 45.3125 23.6875 
L 45.3125 54.6875 
L 54.296875 54.6875 
L 54.296875 0 
L 45.3125 0 
L 45.3125 8.40625 
Q 42.046875 3.421875 37.71875 1 
Q 33.40625 -1.421875 27.6875 -1.421875 
Q 18.265625 -1.421875 13.375 4.4375 
Q 8.5 10.296875 8.5 21.578125 
z
M 31.109375 56 
z
" id="DejaVuSans-117"/>
      <path d="M 2.984375 54.6875 
L 12.5 54.6875 
L 29.59375 8.796875 
L 46.6875 54.6875 
L 56.203125 54.6875 
L 35.6875 0 
L 23.484375 0 
z
" id="DejaVuSans-118"/>
      <path d="M 48.6875 27.296875 
Q 48.6875 37.203125 44.609375 42.84375 
Q 40.53125 48.484375 33.40625 48.484375 
Q 26.265625 48.484375 22.1875 42.84375 
Q 18.109375 37.203125 18.109375 27.296875 
Q 18.109375 17.390625 22.1875 11.75 
Q 26.265625 6.109375 33.40625 6.109375 
Q 40.53125 6.109375 44.609375 11.75 
Q 48.6875 17.390625 48.6875 27.296875 
z
M 18.109375 46.390625 
Q 20.953125 51.265625 25.265625 53.625 
Q 29.59375 56 35.59375 56 
Q 45.5625 56 51.78125 48.09375 
Q 58.015625 40.1875 58.015625 27.296875 
Q 58.015625 14.40625 51.78125 6.484375 
Q 45.5625 -1.421875 35.59375 -1.421875 
Q 29.59375 -1.421875 25.265625 0.953125 
Q 20.953125 3.328125 18.109375 8.203125 
L 18.109375 0 
L 9.078125 0 
L 9.078125 75.984375 
L 18.109375 75.984375 
z
" id="DejaVuSans-98"/>
     </defs>
     <g transform="translate(560.811375 63.772837)scale(0.1 -0.1)">
      <use xlink:href="#DejaVuSans-67"/>
      <use x="69.824219" xlink:href="#DejaVuSans-117"/>
      <use x="133.203125" xlink:href="#DejaVuSans-114"/>
      <use x="174.316406" xlink:href="#DejaVuSans-118"/>
      <use x="233.496094" xlink:href="#DejaVuSans-101"/>
      <use x="295.019531" xlink:href="#DejaVuSans-32"/>
      <use x="326.806641" xlink:href="#DejaVuSans-111"/>
      <use x="387.988281" xlink:href="#DejaVuSans-102"/>
      <use x="423.193359" xlink:href="#DejaVuSans-32"/>
      <use x="454.980469" xlink:href="#DejaVuSans-98"/>
      <use x="518.457031" xlink:href="#DejaVuSans-101"/>
      <use x="579.980469" xlink:href="#DejaVuSans-115"/>
      <use x="632.080078" xlink:href="#DejaVuSans-116"/>
      <use x="671.289062" xlink:href="#DejaVuSans-32"/>
      <use x="703.076172" xlink:href="#DejaVuSans-102"/>
      <use x="738.28125" xlink:href="#DejaVuSans-105"/>
      <use x="766.064453" xlink:href="#DejaVuSans-116"/>
     </g>
    </g>
    <g id="PathCollection_2">
     <g>
      <use style="fill:#1f77b4;stroke:#1f77b4;" x="542.811375" xlink:href="#m7fc31da981" y="75.825963"/>
     </g>
    </g>
    <g id="text_16">
     <!-- Experimental Data -->
     <defs>
      <path d="M 9.8125 72.90625 
L 55.90625 72.90625 
L 55.90625 64.59375 
L 19.671875 64.59375 
L 19.671875 43.015625 
L 54.390625 43.015625 
L 54.390625 34.71875 
L 19.671875 34.71875 
L 19.671875 8.296875 
L 56.78125 8.296875 
L 56.78125 0 
L 9.8125 0 
z
" id="DejaVuSans-69"/>
      <path d="M 54.890625 54.6875 
L 35.109375 28.078125 
L 55.90625 0 
L 45.3125 0 
L 29.390625 21.484375 
L 13.484375 0 
L 2.875 0 
L 24.125 28.609375 
L 4.6875 54.6875 
L 15.28125 54.6875 
L 29.78125 35.203125 
L 44.28125 54.6875 
z
" id="DejaVuSans-120"/>
      <path d="M 18.109375 8.203125 
L 18.109375 -20.796875 
L 9.078125 -20.796875 
L 9.078125 54.6875 
L 18.109375 54.6875 
L 18.109375 46.390625 
Q 20.953125 51.265625 25.265625 53.625 
Q 29.59375 56 35.59375 56 
Q 45.5625 56 51.78125 48.09375 
Q 58.015625 40.1875 58.015625 27.296875 
Q 58.015625 14.40625 51.78125 6.484375 
Q 45.5625 -1.421875 35.59375 -1.421875 
Q 29.59375 -1.421875 25.265625 0.953125 
Q 20.953125 3.328125 18.109375 8.203125 
z
M 48.6875 27.296875 
Q 48.6875 37.203125 44.609375 42.84375 
Q 40.53125 48.484375 33.40625 48.484375 
Q 26.265625 48.484375 22.1875 42.84375 
Q 18.109375 37.203125 18.109375 27.296875 
Q 18.109375 17.390625 22.1875 11.75 
Q 26.265625 6.109375 33.40625 6.109375 
Q 40.53125 6.109375 44.609375 11.75 
Q 48.6875 17.390625 48.6875 27.296875 
z
" id="DejaVuSans-112"/>
      <path d="M 9.421875 75.984375 
L 18.40625 75.984375 
L 18.40625 0 
L 9.421875 0 
z
" id="DejaVuSans-108"/>
     </defs>
     <g transform="translate(560.811375 78.450963)scale(0.1 -0.1)">
      <use xlink:href="#DejaVuSans-69"/>
      <use x="63.183594" xlink:href="#DejaVuSans-120"/>
      <use x="122.363281" xlink:href="#DejaVuSans-112"/>
      <use x="185.839844" xlink:href="#DejaVuSans-101"/>
      <use x="247.363281" xlink:href="#DejaVuSans-114"/>
      <use x="288.476562" xlink:href="#DejaVuSans-105"/>
      <use x="316.259766" xlink:href="#DejaVuSans-109"/>
      <use x="413.671875" xlink:href="#DejaVuSans-101"/>
      <use x="475.195312" xlink:href="#DejaVuSans-110"/>
      <use x="538.574219" xlink:href="#DejaVuSans-116"/>
      <use x="577.783203" xlink:href="#DejaVuSans-97"/>
      <use x="639.0625" xlink:href="#DejaVuSans-108"/>
      <use x="666.845703" xlink:href="#DejaVuSans-32"/>
      <use x="698.632812" xlink:href="#DejaVuSans-68"/>
      <use x="775.634766" xlink:href="#DejaVuSans-97"/>
      <use x="836.914062" xlink:href="#DejaVuSans-116"/>
      <use x="876.123047" xlink:href="#DejaVuSans-97"/>
     </g>
    </g>
   </g>
  </g>
 </g>
 <defs>
  <clipPath id="pe3b4c173dc">
   <rect height="302.7024" width="571.392" x="92.16" y="47.1744"/>
  </clipPath>
 </defs>
</svg>
